<svg width="104" height="106" viewBox="0 0 104 106" fill="none" xmlns="http://www.w3.org/2000/svg">
<path d="M86 40.0462H73.5378L61.6627 53.0648V27.0427H52.0452V33.3785C51.7291 32.9712 51.398 32.5639 51.0367 32.1717C49.0651 30.2408 46.7171 28.7323 44.1434 27.7668C41.5547 26.8014 38.8004 26.379 36.046 26.5298C33.3971 26.4092 30.7632 26.907 28.355 27.978C25.9318 29.0491 23.7946 30.6783 22.1089 32.7148C20.7393 34.3893 19.761 36.3352 19.2191 38.417C18.6773 40.5139 18.587 42.6861 18.9482 44.8132C21.1908 54.8297 30.4622 56.4288 37.2652 57.3188C42.6383 58.0127 47.8008 59.0084 47.6653 63.8055C47.5148 68.6026 41.9159 69.9753 38.1532 69.9753C28.5657 69.9753 28.2497 62.8702 28.2497 62.8702H18C18.1806 66.7622 19.6556 70.4882 22.2143 73.4298C25.7964 77.4727 31.1695 79.4941 38.1983 79.4941C43.2554 79.6148 48.162 77.88 52.0301 74.6065V78.8304H61.6476V66.6717L65.0642 62.9456L74.7871 78.9359H85.9849L71.8973 55.4935L86 39.9557V40.0462ZM52.0602 51.7524C45.1669 46.0652 30.1912 49.6404 28.5958 42.5655C27.753 38.8394 31.4405 35.5508 36.2568 35.5508C40.471 35.5508 44.8809 36.5163 46.5215 42.5655H52.0602V51.7524Z" fill="white"/>
<path d="M100.578 3.95535V79.2576C100.578 85.3007 98.1954 91.1002 93.9588 95.3775C89.7222 99.6548 83.993 102.06 77.9925 102.06H26.0075C20.022 102.06 14.2778 99.6548 10.0412 95.3775C5.80458 91.1002 3.42244 85.3159 3.42244 79.2576V26.7576C3.42244 20.7146 5.80458 14.915 10.0412 10.6377C14.2778 6.36039 20.007 3.95535 26.0075 3.95535H100.593H100.578ZM104 0.5H26.0075C19.1023 0.5 12.4987 3.27037 7.6138 8.18701C2.74398 13.1189 0 19.786 0 26.7576V79.2576C0 86.214 2.74398 92.8963 7.6138 97.813C12.4836 102.73 19.1023 105.5 25.9925 105.5H78.0075C84.8977 105.5 91.5164 102.73 96.3862 97.813C101.256 92.8963 104 86.214 104 79.2576V0.5Z" fill="white"/>
</svg>
