<svg width="16" height="16" viewBox="0 0 16 16" fill="none" xmlns="http://www.w3.org/2000/svg">
<path d="M8 7.29492C9.81205 7.29492 11.281 5.82597 11.281 4.01392C11.281 2.20187 9.81205 0.73291 8 0.73291C6.18795 0.73291 4.71899 2.20187 4.71899 4.01392C4.71899 5.82597 6.18795 7.29492 8 7.29492Z" fill="white"/>
<path d="M8.41019 8.29492H7.58994C6.88977 8.2949 6.19646 8.4328 5.54958 8.70073C4.90271 8.96866 4.31495 9.36138 3.81986 9.85648C3.32476 10.3516 2.93204 10.9393 2.66411 11.5862C2.39617 12.2331 2.25828 12.9264 2.2583 13.6266V14.2671C2.2583 14.8194 2.70599 15.2671 3.25826 15.2671L3.66445 15.2671L12.0995 15.2671L12.7418 15.2671C13.2941 15.2671 13.7418 14.8193 13.7418 14.2671V13.6266C13.7414 12.2127 13.1795 10.8568 12.1797 9.85704C11.1799 8.85727 9.82408 8.2954 8.41019 8.29492Z" fill="white"/>
</svg>
